<svg width="40" height="40" viewBox="0 0 40 40" fill="none" xmlns="http://www.w3.org/2000/svg">
<path opacity="0.32" d="M23.7798 12.5H13.2202C12.2717 12.5 11.5 13.0606 11.5 13.7504C11.5 14.4394 12.2717 15 13.2202 15H23.7798C24.7283 15 25.5 14.4394 25.5 13.7504C25.5 13.0605 24.7283 12.5 23.7798 12.5Z" fill="#637381"/>
<path d="M26.7798 18.75H16.2202C15.2717 18.75 14.5 19.3106 14.5 20.0004C14.5 20.6894 15.2717 21.25 16.2202 21.25H26.7798C27.7283 21.25 28.5 20.6894 28.5 20.0004C28.5 19.3105 27.7283 18.75 26.7798 18.75Z" fill="#637381"/>
<path d="M23.7798 25H13.2202C12.2717 25 11.5 25.5606 11.5 26.2504C11.5 26.9394 12.2717 27.5 13.2202 27.5H23.7798C24.7283 27.5 25.5 26.9394 25.5 26.2504C25.5 25.5606 24.7283 25 23.7798 25Z" fill="#637381"/>
</svg>
