<svg width="36" height="36" viewBox="0 0 36 36" fill="none" xmlns="http://www.w3.org/2000/svg">
<path d="M28.4371 13.671C28.386 12.5533 28.2085 11.79 27.949 11.1222C27.6853 10.4216 27.272 9.78688 26.7378 9.26241C26.2134 8.72817 25.5787 8.31476 24.878 8.05101C24.2101 7.79158 23.447 7.61423 22.3293 7.56345C21.2096 7.51218 20.8517 7.5 18.0002 7.5C15.1486 7.5 14.7909 7.51218 13.6711 7.56316C12.5534 7.61423 11.7903 7.79175 11.1224 8.05129C10.4217 8.31493 9.78697 8.72826 9.26249 9.26245C8.72826 9.78686 8.31484 10.4215 8.05109 11.1221C7.79166 11.7901 7.61431 12.5533 7.56353 13.6708C7.5123 14.7907 7.50012 15.1484 7.50012 17.9999C7.50012 20.8516 7.5123 21.2094 7.56357 22.3291C7.61452 23.4467 7.79203 24.2099 8.05158 24.8779C8.31521 25.5785 8.72853 26.2132 9.2627 26.7376C9.78713 27.2718 10.4218 27.6851 11.1225 27.9487C11.7903 28.2084 12.5536 28.3857 13.6712 28.4368C14.7912 28.4879 15.1488 28.5 18.0003 28.5C20.8519 28.5 21.2097 28.4879 22.3294 28.4368C23.4471 28.3857 24.2102 28.2084 24.8782 27.9487C25.5757 27.6789 26.2091 27.2665 26.738 26.7377C27.2668 26.2089 27.6792 25.5754 27.949 24.8779C28.2087 24.2099 28.386 23.4467 28.4371 22.3292C28.4881 21.2092 28.5002 20.8516 28.5002 18.0001C28.5002 15.1484 28.4881 14.7907 28.4371 13.671ZM26.5471 22.2432C26.5004 23.2669 26.3293 23.8229 26.1856 24.1928C26.0109 24.6457 25.7434 25.057 25.4001 25.4002C25.0569 25.7434 24.6457 26.011 24.1928 26.1856C23.8228 26.3294 23.2669 26.5005 22.2431 26.5471C21.1362 26.5977 20.804 26.6083 18.0002 26.6083C15.1963 26.6083 14.8643 26.5977 13.7571 26.5471C12.7335 26.5005 12.1776 26.3294 11.8075 26.1856C11.3514 26.0173 10.9389 25.7488 10.6002 25.4001C10.2515 25.0614 9.98303 24.6489 9.81469 24.1928C9.67097 23.8229 9.49985 23.2669 9.45322 22.2432C9.40277 21.1361 9.39202 20.8039 9.39202 18.0003C9.39202 15.1964 9.40277 14.8645 9.45322 13.7572C9.49997 12.7334 9.67097 12.1774 9.81469 11.8075C9.98308 11.3514 10.2515 10.9389 10.6002 10.6001C10.9389 10.2513 11.3515 9.98295 11.8076 9.81473C12.1776 9.67085 12.7335 9.49989 13.7573 9.45309C14.8644 9.40264 15.1966 9.3919 18.0002 9.3919C20.8039 9.3919 21.1358 9.40264 22.2432 9.45326C23.2669 9.49989 23.8227 9.67101 24.1928 9.81473C24.6488 9.98311 25.0613 10.2515 25.4001 10.6001C25.7489 10.9388 26.0172 11.3514 26.1855 11.8075C26.3293 12.1775 26.5005 12.7334 26.5471 13.7572C26.5975 14.8643 26.6083 15.1965 26.6083 18.0001C26.6083 20.8039 26.5977 21.1358 26.5471 22.2432Z" fill="url(#paint0_linear_6_2527)"/>
<path d="M18 12.6081C15.0222 12.6081 12.6082 15.0222 12.6082 18.0001C12.6082 20.9779 15.0222 23.3919 18 23.3919C20.978 23.3919 23.392 20.9779 23.392 18.0001C23.392 15.0222 20.978 12.6081 18 12.6081ZM18 21.5C16.0671 21.4999 14.5001 19.9329 14.5002 17.9999C14.5002 16.067 16.0671 14.4999 18.0002 14.4999C19.9332 14.5001 21.5001 16.067 21.5001 17.9999C21.5001 19.9329 19.9331 21.5 18 21.5Z" fill="url(#paint1_linear_6_2527)"/>
<path d="M24.8651 12.3952C24.8651 13.091 24.3009 13.6551 23.6051 13.6551C22.9091 13.6551 22.345 13.091 22.345 12.3952C22.345 11.6991 22.9091 11.135 23.6051 11.135C24.3009 11.135 24.8651 11.6992 24.8651 12.3952Z" fill="url(#paint2_linear_6_2527)"/>
<defs>
<linearGradient id="paint0_linear_6_2527" x1="9.26241" y1="26.7377" x2="26.738" y2="9.26212" gradientUnits="userSpaceOnUse">
<stop stop-color="#FFD600"/>
<stop offset="0.5" stop-color="#FF0100"/>
<stop offset="1" stop-color="#D800B9"/>
</linearGradient>
<linearGradient id="paint1_linear_6_2527" x1="10.5756" y1="25.4246" x2="25.4249" y2="10.5753" gradientUnits="userSpaceOnUse">
<stop stop-color="#FF6400"/>
<stop offset="0.5" stop-color="#FF0100"/>
<stop offset="1" stop-color="#FD0056"/>
</linearGradient>
<linearGradient id="paint2_linear_6_2527" x1="22.714" y1="13.286" x2="24.4959" y2="11.5041" gradientUnits="userSpaceOnUse">
<stop stop-color="#F30072"/>
<stop offset="1" stop-color="#E50097"/>
</linearGradient>
</defs>
</svg>
