<svg width="36" height="36" viewBox="0 0 36 36" fill="none" xmlns="http://www.w3.org/2000/svg">
<path d="M12.2889 10.1051C12.8819 10.2111 13.3812 10.5833 13.6466 11.1185C13.7412 11.3086 13.799 11.5013 13.827 11.7202C13.8463 11.8718 13.8401 12.1231 13.8139 12.2703C13.686 12.9964 13.1534 13.5736 12.4422 13.7602C12.3082 13.7952 12.1943 13.811 12.0393 13.818C11.3027 13.8478 10.6204 13.4405 10.2919 12.7739C10.0361 12.2554 10.0361 11.6467 10.291 11.1273C10.5748 10.55 11.1144 10.169 11.7634 10.0902C11.8746 10.0762 12.1742 10.0849 12.2889 10.1051ZM22.3354 15.2045C22.8066 15.2501 23.27 15.3745 23.6536 15.5593C23.9506 15.702 24.2887 15.9201 24.5961 16.1689C24.9394 16.4465 25.1812 16.7864 25.4623 17.3855C25.6901 17.8707 25.8153 18.2842 25.8801 18.7607C25.8942 18.8623 25.895 19.1355 25.8977 22.393L25.9003 25.9167H24.3018H22.7033V22.9535C22.7033 20.953 22.7007 19.9615 22.6945 19.8993C22.621 19.1583 22.2811 18.6275 21.703 18.349C21.5664 18.2833 21.4753 18.25 21.3316 18.2132C20.7632 18.0669 20.0914 18.1493 19.5912 18.4252C19.1261 18.6818 18.7758 19.2082 18.6444 19.8468C18.5927 20.099 18.5954 19.9247 18.5954 23.0499V25.9167H17.0012H15.4071V20.6482V15.3797H16.9093H18.4114V16.1382V16.8959L18.4762 16.8092C18.612 16.6261 18.8625 16.3642 19.0482 16.2101C19.7655 15.6136 20.687 15.2439 21.5786 15.1958C21.7459 15.187 22.2075 15.1923 22.3354 15.2045ZM13.6028 20.6482V25.9167H11.9692H10.3357V20.6482V15.3797H11.9692H13.6028V20.6482Z" fill="#0A66C2"/>
</svg>
